<svg version="1.1" xmlns="http://www.w3.org/2000/svg" viewBox="0 0 303 338" width="303" height="338">
  <!-- svg-source:excalidraw -->
  
  <defs>
    <style class="style-fonts">
      @font-face {
        font-family: "Virgil";
        src: url("https://excalidraw.com/Virgil.woff2");
      }
      @font-face {
        font-family: "Cascadia";
        src: url("https://excalidraw.com/Cascadia.woff2");
      }
      @font-face {
        font-family: "Assistant";
        src: url("https://excalidraw.com/Assistant-Regular.woff2");
      }
    </style>
    
  </defs>
  <g stroke-linecap="round" transform="translate(78 10) rotate(0 107.5 114)"><path d="M118.57 0.51 C131.04 0.16, 145.69 7.44, 157.14 13.57 C168.58 19.71, 178.81 27.24, 187.23 37.34 C195.64 47.44, 202.99 61.1, 207.61 74.18 C212.22 87.25, 214.92 102.01, 214.89 115.79 C214.87 129.56, 212.26 144.19, 207.46 156.84 C202.66 169.48, 195.1 181.8, 186.09 191.67 C177.08 201.54, 165.08 210.03, 153.38 216.04 C141.68 222.05, 128.6 226.4, 115.86 227.71 C103.13 229.02, 89.48 227.94, 76.98 223.88 C64.48 219.83, 51.17 211.77, 40.89 203.37 C30.61 194.96, 21.9 185.09, 15.32 173.46 C8.74 161.82, 3.49 147.21, 1.41 133.57 C-0.67 119.93, 0.39 105, 2.81 91.62 C5.24 78.25, 9.16 64.87, 15.95 53.31 C22.73 41.75, 32.96 30.6, 43.53 22.28 C54.11 13.97, 64.19 6.4, 79.41 3.42 C94.63 0.45, 123.19 2.9, 134.87 4.45 C146.55 5.99, 149.83 10.94, 149.49 12.69 M117.79 1.28 C130.29 1.1, 145.66 6.25, 157.19 12.46 C168.72 18.67, 178.26 28.12, 186.98 38.53 C195.7 48.94, 204.8 61.79, 209.51 74.92 C214.22 88.04, 215.66 103.85, 215.24 117.27 C214.81 130.7, 211.76 142.82, 206.97 155.46 C202.18 168.09, 195.27 182.73, 186.5 193.06 C177.73 203.4, 165.96 211.6, 154.38 217.48 C142.79 223.36, 129.9 227.54, 117 228.32 C104.09 229.1, 89.32 226.46, 76.95 222.18 C64.59 217.89, 52.91 210.75, 42.81 202.61 C32.7 194.48, 23.08 185, 16.32 173.37 C9.56 161.74, 4.67 146.6, 2.27 132.82 C-0.13 119.05, -0.58 103.98, 1.91 90.71 C4.4 77.43, 10.06 64.73, 17.2 53.17 C24.35 41.62, 34.2 29.65, 44.77 21.36 C55.33 13.07, 67.97 6.77, 80.6 3.45 C93.22 0.12, 114.25 1.71, 120.52 1.41 C126.8 1.11, 118.64 -0.09, 118.25 1.65" stroke="none" stroke-width="0" fill="#f08c00"></path><path d="M124.54 1.9 C137.02 2.04, 150.84 8.13, 162.01 15.14 C173.19 22.16, 183.43 33.19, 191.61 43.99 C199.79 54.8, 207.23 67.06, 211.08 79.95 C214.93 92.84, 215.7 107.51, 214.73 121.33 C213.77 135.15, 210.67 150.35, 205.3 162.88 C199.93 175.42, 191.99 187.18, 182.54 196.56 C173.09 205.95, 160.67 214.1, 148.6 219.19 C136.53 224.28, 123.02 226.71, 110.11 227.08 C97.2 227.45, 83.32 225.87, 71.12 221.41 C58.93 216.95, 46.64 209.25, 36.93 200.32 C27.23 191.39, 19 179.98, 12.9 167.81 C6.8 155.63, 1.88 140.92, 0.34 127.27 C-1.19 113.61, 0.29 99.12, 3.67 85.88 C7.05 72.64, 12.91 59.05, 20.63 47.82 C28.35 36.6, 39.04 26.18, 49.97 18.53 C60.9 10.87, 73.13 4.77, 86.22 1.9 C99.3 -0.96, 121.2 0.69, 128.48 1.33 C135.75 1.97, 130.35 3.89, 129.86 5.76 M103.8 -0.86 C116.3 -3.21, 131.39 1.32, 143.75 6.03 C156.11 10.74, 168.12 18.38, 177.96 27.4 C187.8 36.41, 196.86 48.17, 202.8 60.11 C208.73 72.04, 212.21 85.22, 213.56 99.01 C214.91 112.8, 213.75 129.23, 210.9 142.84 C208.06 156.46, 203.82 169.49, 196.48 180.72 C189.13 191.95, 177.98 202.53, 166.85 210.22 C155.71 217.91, 142.3 224.08, 129.66 226.87 C117.03 229.66, 103.76 229.5, 91.06 226.97 C78.37 224.44, 64.68 218.46, 53.48 211.69 C42.28 204.92, 31.86 196.81, 23.86 186.38 C15.86 175.95, 9.4 162.26, 5.46 149.12 C1.53 135.97, -0.51 121.23, 0.25 107.51 C1 93.79, 4.5 79.48, 9.98 66.8 C15.46 54.12, 23.71 41.21, 33.13 31.42 C42.54 21.63, 54.41 13.08, 66.47 8.05 C78.53 3.03, 99.15 2.01, 105.46 1.29 C111.78 0.57, 104.48 1.9, 104.36 3.73" stroke="#f08c00" stroke-width="4" fill="none"></path></g><g stroke-linecap="round" transform="translate(77 71) rotate(0 46 128.5)"><path d="M23 0 C35.13 -2.92, 45.8 -1.59, 69 0 C82.49 -2.48, 94.91 10.32, 92 23 C93.04 104.81, 96.75 183.09, 92 234 C91.01 245.75, 86.99 258.66, 69 257 C53.3 255.85, 39.15 256.99, 23 257 C10.77 258.53, -2.48 249.22, 0 234 C2.6 167.88, 0.08 109.62, 0 23 C3.33 10.08, 4.18 -0.09, 23 0" stroke="none" stroke-width="0" fill="#40c057"></path><path d="M23 0 C35.02 -1.21, 47.94 1.44, 69 0 M23 0 C34.24 0.1, 46.67 -0.31, 69 0 M69 0 C84.95 -0.03, 93.08 6.51, 92 23 M69 0 C84 1.63, 92.03 5.79, 92 23 M92 23 C89.19 84.76, 89.59 147.67, 92 234 M92 23 C92.98 89.78, 92.14 155.2, 92 234 M92 234 C91.49 248.54, 84.69 255.54, 69 257 M92 234 C90.15 250.49, 86.43 257.76, 69 257 M69 257 C59.29 256.2, 47.58 258.24, 23 257 M69 257 C54.95 257.46, 39.13 256.01, 23 257 M23 257 C5.84 256.5, 0.05 248.96, 0 234 M23 257 C7.78 257.4, -0.38 251.27, 0 234 M0 234 C2.47 179.57, 0.08 123.86, 0 23 M0 234 C-1.71 189.77, -0.49 144.35, 0 23 M0 23 C0.85 7.36, 7.93 -1.65, 23 0 M0 23 C-0.41 6.89, 7.58 1.29, 23 0" stroke="#2f9e44" stroke-width="4" fill="none"></path></g><g stroke-linecap="round" transform="translate(10 138) rotate(0 34 72)"><path d="M17 0 C32.27 1.25, 38.99 -3.2, 51 0 C61.36 -2.64, 65.91 3.05, 68 17 C67.25 56.38, 70.56 100.18, 68 127 C64.92 135.33, 65.49 141.99, 51 144 C44.43 142.71, 31.69 146.33, 17 144 C6.85 143.68, -2.21 140.62, 0 127 C-2.51 99.13, -0.68 72.84, 0 17 C-1.03 2.76, 8.24 -2.82, 17 0" stroke="none" stroke-width="0" fill="#40c057"></path><path d="M17 0 C25.87 0.64, 33.17 -1.4, 51 0 M17 0 C25.59 -0.22, 34.83 -0.96, 51 0 M51 0 C62.62 -1.87, 69.06 5.97, 68 17 M51 0 C62.01 -1.03, 66.91 5.19, 68 17 M68 17 C67.69 48.73, 67.99 76.65, 68 127 M68 17 C67.77 47.63, 68.52 78.76, 68 127 M68 127 C67.21 137.7, 61.66 144.15, 51 144 M68 127 C69.93 137.03, 60.97 143.87, 51 144 M51 144 C38.93 143.29, 29.96 145.73, 17 144 M51 144 C41.8 142.83, 30.65 144.56, 17 144 M17 144 C5.05 142.21, -1.35 139.47, 0 127 M17 144 C5.87 142.46, 0.82 137.23, 0 127 M0 127 C1.02 96.8, -2.26 69.16, 0 17 M0 127 C-1.6 100.3, -0.05 74.62, 0 17 M0 17 C-1.03 4.65, 7.34 1.46, 17 0 M0 17 C-0.99 4.21, 6.56 1.75, 17 0" stroke="#2f9e44" stroke-width="4" fill="none"></path></g><g stroke-linecap="round" transform="translate(167 137) rotate(0 34.5 59)"><path d="M17.25 0 C31.66 -0.93, 38.31 3.9, 51.75 0 C62.21 2.45, 71.42 2.68, 69 17.25 C66.83 44.78, 71.93 76.6, 69 100.75 C70.62 110.87, 63.77 115.07, 51.75 118 C40.06 115.47, 27.91 114.76, 17.25 118 C6.56 120.82, -3 110.1, 0 100.75 C3.64 84.64, -0.66 64.49, 0 17.25 C-1.79 8.65, 5.9 2.19, 17.25 0" stroke="none" stroke-width="0" fill="#40c057"></path><path d="M17.25 0 C27.53 -0.4, 39.31 -0.65, 51.75 0 M17.25 0 C29.5 -0.43, 42.17 0.16, 51.75 0 M51.75 0 C63.74 -0.4, 70.26 6.12, 69 17.25 M51.75 0 C62.51 0.74, 70.46 3.82, 69 17.25 M69 17.25 C70.32 46.32, 68.38 76.79, 69 100.75 M69 17.25 C67.83 35.36, 68.04 55.99, 69 100.75 M69 100.75 C67.2 110.59, 61.64 119.83, 51.75 118 M69 100.75 C67.89 110.08, 63.18 118.23, 51.75 118 M51.75 118 C46.04 117.74, 35.85 119.83, 17.25 118 M51.75 118 C41.67 118.75, 32.69 118.26, 17.25 118 M17.25 118 C5.95 118.73, 1.3 111.73, 0 100.75 M17.25 118 C4.97 118.51, -0.05 112.41, 0 100.75 M0 100.75 C-0.13 83.34, -2.17 68.47, 0 17.25 M0 100.75 C-0.1 77.19, -0.07 53.28, 0 17.25 M0 17.25 C-1.86 4.85, 7.23 0.93, 17.25 0 M0 17.25 C-0.28 7.28, 4.74 -1.41, 17.25 0" stroke="#2f9e44" stroke-width="4" fill="none"></path></g></svg>