<svg version="1.1" xmlns="http://www.w3.org/2000/svg" viewBox="0 0 521 523" width="521" height="523">
  <!-- svg-source:excalidraw -->
  
  <defs>
    <style class="style-fonts">
      @font-face {
        font-family: "Virgil";
        src: url("https://excalidraw.com/Virgil.woff2");
      }
      @font-face {
        font-family: "Cascadia";
        src: url("https://excalidraw.com/Cascadia.woff2");
      }
      @font-face {
        font-family: "Assistant";
        src: url("https://excalidraw.com/Assistant-Regular.woff2");
      }
    </style>
    
  </defs>
  <g stroke-linecap="round" transform="translate(10 10) rotate(0 250.5 251.5)"><path d="M501 251.5 C501 256.56, 500.85 261.63, 500.54 266.69 C500.24 271.74, 499.78 276.79, 499.17 281.81 C498.57 286.84, 497.81 291.86, 496.9 296.83 C495.99 301.81, 494.93 306.77, 493.72 311.69 C492.51 316.6, 491.16 321.49, 489.66 326.32 C488.16 331.15, 486.51 335.95, 484.72 340.68 C482.93 345.42, 481 350.1, 478.93 354.72 C476.86 359.33, 474.65 363.9, 472.31 368.38 C469.96 372.86, 467.48 377.28, 464.87 381.61 C462.26 385.94, 459.52 390.2, 456.66 394.37 C453.79 398.53, 450.8 402.62, 447.69 406.6 C444.58 410.59, 441.35 414.49, 438 418.28 C434.66 422.06, 431.2 425.76, 427.63 429.34 C424.07 432.92, 420.39 436.39, 416.61 439.75 C412.84 443.11, 408.96 446.35, 404.99 449.48 C401.02 452.6, 396.95 455.61, 392.8 458.48 C388.65 461.36, 384.41 464.11, 380.09 466.73 C375.78 469.35, 371.38 471.84, 366.91 474.19 C362.45 476.54, 357.91 478.77, 353.31 480.84 C348.71 482.92, 344.04 484.86, 339.33 486.66 C334.61 488.45, 329.84 490.11, 325.02 491.61 C320.21 493.12, 315.34 494.48, 310.45 495.69 C305.55 496.9, 300.61 497.97, 295.65 498.88 C290.69 499.79, 285.7 500.56, 280.69 501.17 C275.69 501.78, 270.66 502.24, 265.62 502.54 C260.59 502.85, 255.54 503, 250.5 503 C245.46 503, 240.41 502.85, 235.38 502.54 C230.34 502.24, 225.31 501.78, 220.31 501.17 C215.3 500.56, 210.31 499.79, 205.35 498.88 C200.39 497.97, 195.45 496.9, 190.55 495.69 C185.66 494.48, 180.79 493.12, 175.98 491.61 C171.16 490.11, 166.39 488.45, 161.67 486.66 C156.96 484.86, 152.29 482.92, 147.69 480.84 C143.09 478.77, 138.55 476.54, 134.09 474.19 C129.62 471.84, 125.22 469.35, 120.91 466.73 C116.59 464.11, 112.35 461.36, 108.2 458.48 C104.05 455.61, 99.98 452.6, 96.01 449.48 C92.04 446.35, 88.16 443.11, 84.39 439.75 C80.61 436.39, 76.93 432.92, 73.37 429.34 C69.8 425.76, 66.34 422.06, 63 418.28 C59.65 414.49, 56.42 410.59, 53.31 406.6 C50.2 402.62, 47.21 398.53, 44.34 394.37 C41.48 390.2, 38.74 385.94, 36.13 381.61 C33.52 377.28, 31.04 372.86, 28.69 368.38 C26.35 363.9, 24.14 359.33, 22.07 354.72 C20 350.1, 18.07 345.42, 16.28 340.68 C14.49 335.95, 12.84 331.15, 11.34 326.32 C9.84 321.49, 8.49 316.6, 7.28 311.69 C6.07 306.77, 5.01 301.81, 4.1 296.83 C3.19 291.86, 2.43 286.84, 1.83 281.81 C1.22 276.79, 0.76 271.74, 0.46 266.69 C0.15 261.63, 0 256.56, 0 251.5 C0 246.44, 0.15 241.37, 0.46 236.31 C0.76 231.26, 1.22 226.21, 1.83 221.19 C2.43 216.16, 3.19 211.14, 4.1 206.17 C5.01 201.19, 6.07 196.23, 7.28 191.31 C8.49 186.4, 9.84 181.51, 11.34 176.68 C12.84 171.85, 14.49 167.05, 16.28 162.32 C18.07 157.58, 20 152.9, 22.07 148.28 C24.14 143.67, 26.35 139.1, 28.69 134.62 C31.04 130.14, 33.52 125.72, 36.13 121.39 C38.74 117.06, 41.48 112.8, 44.34 108.63 C47.21 104.47, 50.2 100.38, 53.31 96.4 C56.42 92.41, 59.65 88.51, 63 84.72 C66.34 80.94, 69.8 77.24, 73.37 73.66 C76.93 70.08, 80.61 66.61, 84.39 63.25 C88.16 59.89, 92.04 56.65, 96.01 53.52 C99.98 50.4, 104.05 47.39, 108.2 44.52 C112.35 41.64, 116.59 38.89, 120.91 36.27 C125.22 33.65, 129.62 31.16, 134.09 28.81 C138.55 26.46, 143.09 24.23, 147.69 22.16 C152.29 20.08, 156.96 18.14, 161.67 16.34 C166.39 14.55, 171.16 12.89, 175.98 11.39 C180.79 9.88, 185.66 8.52, 190.55 7.31 C195.45 6.1, 200.39 5.03, 205.35 4.12 C210.31 3.21, 215.3 2.44, 220.31 1.83 C225.31 1.22, 230.34 0.76, 235.38 0.46 C240.41 0.15, 245.46 0, 250.5 0 C255.54 0, 260.59 0.15, 265.62 0.46 C270.66 0.76, 275.69 1.22, 280.69 1.83 C285.7 2.44, 290.69 3.21, 295.65 4.12 C300.61 5.03, 305.55 6.1, 310.45 7.31 C315.34 8.52, 320.21 9.88, 325.02 11.39 C329.84 12.89, 334.61 14.55, 339.33 16.34 C344.04 18.14, 348.71 20.08, 353.31 22.16 C357.91 24.23, 362.45 26.46, 366.91 28.81 C371.38 31.16, 375.78 33.65, 380.09 36.27 C384.41 38.89, 388.65 41.64, 392.8 44.52 C396.95 47.39, 401.02 50.4, 404.99 53.52 C408.96 56.65, 412.84 59.89, 416.61 63.25 C420.39 66.61, 424.07 70.08, 427.63 73.66 C431.2 77.24, 434.66 80.94, 438 84.72 C441.35 88.51, 444.58 92.41, 447.69 96.4 C450.8 100.38, 453.79 104.47, 456.66 108.63 C459.52 112.8, 462.26 117.06, 464.87 121.39 C467.48 125.72, 469.96 130.14, 472.31 134.62 C474.65 139.1, 476.86 143.67, 478.93 148.28 C481 152.9, 482.93 157.58, 484.72 162.32 C486.51 167.05, 488.16 171.85, 489.66 176.68 C491.16 181.51, 492.51 186.4, 493.72 191.31 C494.93 196.23, 495.99 201.19, 496.9 206.17 C497.81 211.14, 498.57 216.16, 499.17 221.19 C499.78 226.21, 500.24 231.26, 500.54 236.31 C500.85 241.37, 500.92 248.97, 501 251.5 C501.08 254.03, 501.08 248.97, 501 251.5" stroke="none" stroke-width="0" fill="#10468b"></path><path d="M501 251.5 C501 256.56, 500.85 261.63, 500.54 266.69 C500.24 271.74, 499.78 276.79, 499.17 281.81 C498.57 286.84, 497.81 291.86, 496.9 296.83 C495.99 301.81, 494.93 306.77, 493.72 311.69 C492.51 316.6, 491.16 321.49, 489.66 326.32 C488.16 331.15, 486.51 335.95, 484.72 340.68 C482.93 345.42, 481 350.1, 478.93 354.72 C476.86 359.33, 474.65 363.9, 472.31 368.38 C469.96 372.86, 467.48 377.28, 464.87 381.61 C462.26 385.94, 459.52 390.2, 456.66 394.37 C453.79 398.53, 450.8 402.62, 447.69 406.6 C444.58 410.59, 441.35 414.49, 438 418.28 C434.66 422.06, 431.2 425.76, 427.63 429.34 C424.07 432.92, 420.39 436.39, 416.61 439.75 C412.84 443.11, 408.96 446.35, 404.99 449.48 C401.02 452.6, 396.95 455.61, 392.8 458.48 C388.65 461.36, 384.41 464.11, 380.09 466.73 C375.78 469.35, 371.38 471.84, 366.91 474.19 C362.45 476.54, 357.91 478.77, 353.31 480.84 C348.71 482.92, 344.04 484.86, 339.33 486.66 C334.61 488.45, 329.84 490.11, 325.02 491.61 C320.21 493.12, 315.34 494.48, 310.45 495.69 C305.55 496.9, 300.61 497.97, 295.65 498.88 C290.69 499.79, 285.7 500.56, 280.69 501.17 C275.69 501.78, 270.66 502.24, 265.62 502.54 C260.59 502.85, 255.54 503, 250.5 503 C245.46 503, 240.41 502.85, 235.38 502.54 C230.34 502.24, 225.31 501.78, 220.31 501.17 C215.3 500.56, 210.31 499.79, 205.35 498.88 C200.39 497.97, 195.45 496.9, 190.55 495.69 C185.66 494.48, 180.79 493.12, 175.98 491.61 C171.16 490.11, 166.39 488.45, 161.67 486.66 C156.96 484.86, 152.29 482.92, 147.69 480.84 C143.09 478.77, 138.55 476.54, 134.09 474.19 C129.62 471.84, 125.22 469.35, 120.91 466.73 C116.59 464.11, 112.35 461.36, 108.2 458.48 C104.05 455.61, 99.98 452.6, 96.01 449.48 C92.04 446.35, 88.16 443.11, 84.39 439.75 C80.61 436.39, 76.93 432.92, 73.37 429.34 C69.8 425.76, 66.34 422.06, 63 418.28 C59.65 414.49, 56.42 410.59, 53.31 406.6 C50.2 402.62, 47.21 398.53, 44.34 394.37 C41.48 390.2, 38.74 385.94, 36.13 381.61 C33.52 377.28, 31.04 372.86, 28.69 368.38 C26.35 363.9, 24.14 359.33, 22.07 354.72 C20 350.1, 18.07 345.42, 16.28 340.68 C14.49 335.95, 12.84 331.15, 11.34 326.32 C9.84 321.49, 8.49 316.6, 7.28 311.69 C6.07 306.77, 5.01 301.81, 4.1 296.83 C3.19 291.86, 2.43 286.84, 1.83 281.81 C1.22 276.79, 0.76 271.74, 0.46 266.69 C0.15 261.63, 0 256.56, 0 251.5 C0 246.44, 0.15 241.37, 0.46 236.31 C0.76 231.26, 1.22 226.21, 1.83 221.19 C2.43 216.16, 3.19 211.14, 4.1 206.17 C5.01 201.19, 6.07 196.23, 7.28 191.31 C8.49 186.4, 9.84 181.51, 11.34 176.68 C12.84 171.85, 14.49 167.05, 16.28 162.32 C18.07 157.58, 20 152.9, 22.07 148.28 C24.14 143.67, 26.35 139.1, 28.69 134.62 C31.04 130.14, 33.52 125.72, 36.13 121.39 C38.74 117.06, 41.48 112.8, 44.34 108.63 C47.21 104.47, 50.2 100.38, 53.31 96.4 C56.42 92.41, 59.65 88.51, 63 84.72 C66.34 80.94, 69.8 77.24, 73.37 73.66 C76.93 70.08, 80.61 66.61, 84.39 63.25 C88.16 59.89, 92.04 56.65, 96.01 53.52 C99.98 50.4, 104.05 47.39, 108.2 44.52 C112.35 41.64, 116.59 38.89, 120.91 36.27 C125.22 33.65, 129.62 31.16, 134.09 28.81 C138.55 26.46, 143.09 24.23, 147.69 22.16 C152.29 20.08, 156.96 18.14, 161.67 16.34 C166.39 14.55, 171.16 12.89, 175.98 11.39 C180.79 9.88, 185.66 8.52, 190.55 7.31 C195.45 6.1, 200.39 5.03, 205.35 4.12 C210.31 3.21, 215.3 2.44, 220.31 1.83 C225.31 1.22, 230.34 0.76, 235.38 0.46 C240.41 0.15, 245.46 0, 250.5 0 C255.54 0, 260.59 0.15, 265.62 0.46 C270.66 0.76, 275.69 1.22, 280.69 1.83 C285.7 2.44, 290.69 3.21, 295.65 4.12 C300.61 5.03, 305.55 6.1, 310.45 7.31 C315.34 8.52, 320.21 9.88, 325.02 11.39 C329.84 12.89, 334.61 14.55, 339.33 16.34 C344.04 18.14, 348.71 20.08, 353.31 22.16 C357.91 24.23, 362.45 26.46, 366.91 28.81 C371.38 31.16, 375.78 33.65, 380.09 36.27 C384.41 38.89, 388.65 41.64, 392.8 44.52 C396.95 47.39, 401.02 50.4, 404.99 53.52 C408.96 56.65, 412.84 59.89, 416.61 63.25 C420.39 66.61, 424.07 70.08, 427.63 73.66 C431.2 77.24, 434.66 80.94, 438 84.72 C441.35 88.51, 444.58 92.41, 447.69 96.4 C450.8 100.38, 453.79 104.47, 456.66 108.63 C459.52 112.8, 462.26 117.06, 464.87 121.39 C467.48 125.72, 469.96 130.14, 472.31 134.62 C474.65 139.1, 476.86 143.67, 478.93 148.28 C481 152.9, 482.93 157.58, 484.72 162.32 C486.51 167.05, 488.16 171.85, 489.66 176.68 C491.16 181.51, 492.51 186.4, 493.72 191.31 C494.93 196.23, 495.99 201.19, 496.9 206.17 C497.81 211.14, 498.57 216.16, 499.17 221.19 C499.78 226.21, 500.24 231.26, 500.54 236.31 C500.85 241.37, 500.92 248.97, 501 251.5 C501.08 254.03, 501.08 248.97, 501 251.5" stroke="#10468b" stroke-width="4" fill="none"></path></g><g stroke-linecap="round" transform="translate(200 98) rotate(0 62 160.5)"><path d="M31 0 C54.01 1.08, 82.02 -2.54, 93 0 C116.33 5.35, 125.66 10.24, 124 31 C122.33 93.23, 118.9 156.43, 124 290 C126.9 307.14, 118.82 325.75, 93 321 C71.46 320.15, 44.3 321.21, 31 321 C9.21 326.06, -3 312.02, 0 290 C6.92 224.11, 3.62 161.35, 0 31 C-0.34 15.51, 13.14 1.77, 31 0" stroke="none" stroke-width="0" fill="#ffffff"></path><path d="M31 0 C51.97 -2.28, 75.11 1.86, 93 0 M31 0 C54.29 0.55, 73.48 0.79, 93 0 M93 0 C115.78 -2.48, 122.88 11.95, 124 31 M93 0 C117.84 4.32, 126.75 12.07, 124 31 M124 31 C130.54 101.81, 124.86 174.7, 124 290 M124 31 C120.8 128.59, 121.46 225.3, 124 290 M124 290 C120.31 310.99, 113.44 320.19, 93 321 M124 290 C125.04 310.41, 112.88 319.22, 93 321 M93 321 C70.17 318.1, 54.52 318.15, 31 321 M93 321 C74.91 318.48, 54.46 320.75, 31 321 M31 321 C9.32 320.62, -2.85 311.54, 0 290 M31 321 C6.73 318.07, -3.36 313.84, 0 290 M0 290 C-0.84 203.08, 3.8 119.8, 0 31 M0 290 C2.87 192.96, 4.6 97.92, 0 31 M0 31 C3.74 10.86, 7.35 0.74, 31 0 M0 31 C-3.26 6.41, 5.99 -3.76, 31 0" stroke="#ffffff" stroke-width="4" fill="none"></path></g><g stroke-linecap="round" transform="translate(136 163) rotate(0 42.5 84)"><path d="M21.25 0 C33.24 -1.23, 38.53 -1.98, 63.75 0 C75.63 -0.99, 85.19 1.81, 85 21.25 C91.98 67.22, 90.58 102.93, 85 146.75 C83.89 162.13, 77.42 164.81, 63.75 168 C47.58 170.43, 34.45 165.4, 21.25 168 C11.71 171.87, -2.38 160.68, 0 146.75 C3.02 112.82, 3.06 79.84, 0 21.25 C-1.32 4.32, 12.42 5.37, 21.25 0" stroke="none" stroke-width="0" fill="#ffffff"></path><path d="M21.25 0 C35.25 2.93, 51.57 -2.49, 63.75 0 M21.25 0 C34.53 1.33, 50.74 2.41, 63.75 0 M63.75 0 C80.31 1.51, 83.95 10.9, 85 21.25 M63.75 0 C76.3 3.7, 84.84 2.64, 85 21.25 M85 21.25 C87.98 62.68, 86.38 109.24, 85 146.75 M85 21.25 C82.57 48.13, 83.14 75.7, 85 146.75 M85 146.75 C84.32 159.37, 79.55 169.68, 63.75 168 M85 146.75 C81.8 158.96, 75.58 172.34, 63.75 168 M63.75 168 C50.81 169.81, 38.87 167.41, 21.25 168 M63.75 168 C48.59 168.35, 34.71 166.65, 21.25 168 M21.25 168 C4.16 170.76, 0.99 159.98, 0 146.75 M21.25 168 C6.88 165.4, -3.99 164.97, 0 146.75 M0 146.75 C-1.98 115.38, -4.95 89.59, 0 21.25 M0 146.75 C-3.84 113.83, -3.76 78.46, 0 21.25 M0 21.25 C-3.77 3.81, 10.82 1.48, 21.25 0 M0 21.25 C-1.73 5.95, 7.43 1.84, 21.25 0" stroke="#ffffff" stroke-width="4" fill="none"></path></g><g stroke-linecap="round" transform="translate(307.5 177) rotate(0 39.5 76.5)"><path d="M19.75 0 C35.3 -4.34, 41.79 1.25, 59.25 0 C67.91 -3.61, 78.16 1.38, 79 19.75 C81.39 51.24, 79.65 78.04, 79 133.25 C75.23 144.5, 68.1 157.88, 59.25 153 C52.59 147.75, 45.93 150.15, 19.75 153 C4.86 150.01, -5.12 147.4, 0 133.25 C-1.67 97.12, -8.1 60.44, 0 19.75 C-1.17 6.38, 2.14 -4.17, 19.75 0" stroke="none" stroke-width="0" fill="#ffffff"></path><path d="M19.75 0 C33.18 -2.65, 49.89 -1.46, 59.25 0 M19.75 0 C34.6 -1.91, 46.54 -0.25, 59.25 0 M59.25 0 C72.33 -0.7, 75.12 2.86, 79 19.75 M59.25 0 C71.98 -4.54, 76.92 10.8, 79 19.75 M79 19.75 C80.37 50.99, 81.73 84.83, 79 133.25 M79 19.75 C79.76 61.57, 77.98 102.06, 79 133.25 M79 133.25 C75.41 145.05, 68.51 154.96, 59.25 153 M79 133.25 C81.48 149.22, 68 149.51, 59.25 153 M59.25 153 C44.91 154.52, 28.67 154.17, 19.75 153 M59.25 153 C47.44 152.85, 33.38 151.93, 19.75 153 M19.75 153 C6.1 152.23, -3.24 142.56, 0 133.25 M19.75 153 C4.73 152.43, -2.28 146.21, 0 133.25 M0 133.25 C0.81 100.23, 3.68 73.5, 0 19.75 M0 133.25 C-0.16 98.67, 1.43 62.86, 0 19.75 M0 19.75 C0.49 10.02, 3.93 1.81, 19.75 0 M0 19.75 C-4.27 9.06, 3.37 -1.99, 19.75 0" stroke="#ffffff" stroke-width="4" fill="none"></path></g></svg>