<svg version="1.1" xmlns="http://www.w3.org/2000/svg" viewBox="0 0 521 523" width="521" height="523">
  <!-- svg-source:excalidraw -->
  
  <defs>
    <style class="style-fonts">
      @font-face {
        font-family: "Virgil";
        src: url("https://excalidraw.com/Virgil.woff2");
      }
      @font-face {
        font-family: "Cascadia";
        src: url("https://excalidraw.com/Cascadia.woff2");
      }
      @font-face {
        font-family: "Assistant";
        src: url("https://excalidraw.com/Assistant-Regular.woff2");
      }
    </style>
    
  </defs>
  <g stroke-linecap="round" transform="translate(10 10) rotate(0 250.5 251.5)"><path d="M501 251.5 C501 256.56, 500.85 261.63, 500.54 266.69 C500.24 271.74, 499.78 276.79, 499.17 281.81 C498.57 286.84, 497.81 291.86, 496.9 296.83 C495.99 301.81, 494.93 306.77, 493.72 311.69 C492.51 316.6, 491.16 321.49, 489.66 326.32 C488.16 331.15, 486.51 335.95, 484.72 340.68 C482.93 345.42, 481 350.1, 478.93 354.72 C476.86 359.33, 474.65 363.9, 472.31 368.38 C469.96 372.86, 467.48 377.28, 464.87 381.61 C462.26 385.94, 459.52 390.2, 456.66 394.37 C453.79 398.53, 450.8 402.62, 447.69 406.6 C444.58 410.59, 441.35 414.49, 438 418.28 C434.66 422.06, 431.2 425.76, 427.63 429.34 C424.07 432.92, 420.39 436.39, 416.61 439.75 C412.84 443.11, 408.96 446.35, 404.99 449.48 C401.02 452.6, 396.95 455.61, 392.8 458.48 C388.65 461.36, 384.41 464.11, 380.09 466.73 C375.78 469.35, 371.38 471.84, 366.91 474.19 C362.45 476.54, 357.91 478.77, 353.31 480.84 C348.71 482.92, 344.04 484.86, 339.33 486.66 C334.61 488.45, 329.84 490.11, 325.02 491.61 C320.21 493.12, 315.34 494.48, 310.45 495.69 C305.55 496.9, 300.61 497.97, 295.65 498.88 C290.69 499.79, 285.7 500.56, 280.69 501.17 C275.69 501.78, 270.66 502.24, 265.62 502.54 C260.59 502.85, 255.54 503, 250.5 503 C245.46 503, 240.41 502.85, 235.38 502.54 C230.34 502.24, 225.31 501.78, 220.31 501.17 C215.3 500.56, 210.31 499.79, 205.35 498.88 C200.39 497.97, 195.45 496.9, 190.55 495.69 C185.66 494.48, 180.79 493.12, 175.98 491.61 C171.16 490.11, 166.39 488.45, 161.67 486.66 C156.96 484.86, 152.29 482.92, 147.69 480.84 C143.09 478.77, 138.55 476.54, 134.09 474.19 C129.62 471.84, 125.22 469.35, 120.91 466.73 C116.59 464.11, 112.35 461.36, 108.2 458.48 C104.05 455.61, 99.98 452.6, 96.01 449.48 C92.04 446.35, 88.16 443.11, 84.39 439.75 C80.61 436.39, 76.93 432.92, 73.37 429.34 C69.8 425.76, 66.34 422.06, 63 418.28 C59.65 414.49, 56.42 410.59, 53.31 406.6 C50.2 402.62, 47.21 398.53, 44.34 394.37 C41.48 390.2, 38.74 385.94, 36.13 381.61 C33.52 377.28, 31.04 372.86, 28.69 368.38 C26.35 363.9, 24.14 359.33, 22.07 354.72 C20 350.1, 18.07 345.42, 16.28 340.68 C14.49 335.95, 12.84 331.15, 11.34 326.32 C9.84 321.49, 8.49 316.6, 7.28 311.69 C6.07 306.77, 5.01 301.81, 4.1 296.83 C3.19 291.86, 2.43 286.84, 1.83 281.81 C1.22 276.79, 0.76 271.74, 0.46 266.69 C0.15 261.63, 0 256.56, 0 251.5 C0 246.44, 0.15 241.37, 0.46 236.31 C0.76 231.26, 1.22 226.21, 1.83 221.19 C2.43 216.16, 3.19 211.14, 4.1 206.17 C5.01 201.19, 6.07 196.23, 7.28 191.31 C8.49 186.4, 9.84 181.51, 11.34 176.68 C12.84 171.85, 14.49 167.05, 16.28 162.32 C18.07 157.58, 20 152.9, 22.07 148.28 C24.14 143.67, 26.35 139.1, 28.69 134.62 C31.04 130.14, 33.52 125.72, 36.13 121.39 C38.74 117.06, 41.48 112.8, 44.34 108.63 C47.21 104.47, 50.2 100.38, 53.31 96.4 C56.42 92.41, 59.65 88.51, 63 84.72 C66.34 80.94, 69.8 77.24, 73.37 73.66 C76.93 70.08, 80.61 66.61, 84.39 63.25 C88.16 59.89, 92.04 56.65, 96.01 53.52 C99.98 50.4, 104.05 47.39, 108.2 44.52 C112.35 41.64, 116.59 38.89, 120.91 36.27 C125.22 33.65, 129.62 31.16, 134.09 28.81 C138.55 26.46, 143.09 24.23, 147.69 22.16 C152.29 20.08, 156.96 18.14, 161.67 16.34 C166.39 14.55, 171.16 12.89, 175.98 11.39 C180.79 9.88, 185.66 8.52, 190.55 7.31 C195.45 6.1, 200.39 5.03, 205.35 4.12 C210.31 3.21, 215.3 2.44, 220.31 1.83 C225.31 1.22, 230.34 0.76, 235.38 0.46 C240.41 0.15, 245.46 0, 250.5 0 C255.54 0, 260.59 0.15, 265.62 0.46 C270.66 0.76, 275.69 1.22, 280.69 1.83 C285.7 2.44, 290.69 3.21, 295.65 4.12 C300.61 5.03, 305.55 6.1, 310.45 7.31 C315.34 8.52, 320.21 9.88, 325.02 11.39 C329.84 12.89, 334.61 14.55, 339.33 16.34 C344.04 18.14, 348.71 20.08, 353.31 22.16 C357.91 24.23, 362.45 26.46, 366.91 28.81 C371.38 31.16, 375.78 33.65, 380.09 36.27 C384.41 38.89, 388.65 41.64, 392.8 44.52 C396.95 47.39, 401.02 50.4, 404.99 53.52 C408.96 56.65, 412.84 59.89, 416.61 63.25 C420.39 66.61, 424.07 70.08, 427.63 73.66 C431.2 77.24, 434.66 80.94, 438 84.72 C441.35 88.51, 444.58 92.41, 447.69 96.4 C450.8 100.38, 453.79 104.47, 456.66 108.63 C459.52 112.8, 462.26 117.06, 464.87 121.39 C467.48 125.72, 469.96 130.14, 472.31 134.62 C474.65 139.1, 476.86 143.67, 478.93 148.28 C481 152.9, 482.93 157.58, 484.72 162.32 C486.51 167.05, 488.16 171.85, 489.66 176.68 C491.16 181.51, 492.51 186.4, 493.72 191.31 C494.93 196.23, 495.99 201.19, 496.9 206.17 C497.81 211.14, 498.57 216.16, 499.17 221.19 C499.78 226.21, 500.24 231.26, 500.54 236.31 C500.85 241.37, 500.92 248.97, 501 251.5 C501.08 254.03, 501.08 248.97, 501 251.5" stroke="none" stroke-width="0" fill="#10468b"></path><path d="M501 251.5 C501 256.56, 500.85 261.63, 500.54 266.69 C500.24 271.74, 499.78 276.79, 499.17 281.81 C498.57 286.84, 497.81 291.86, 496.9 296.83 C495.99 301.81, 494.93 306.77, 493.72 311.69 C492.51 316.6, 491.16 321.49, 489.66 326.32 C488.16 331.15, 486.51 335.95, 484.72 340.68 C482.93 345.42, 481 350.1, 478.93 354.72 C476.86 359.33, 474.65 363.9, 472.31 368.38 C469.96 372.86, 467.48 377.28, 464.87 381.61 C462.26 385.94, 459.52 390.2, 456.66 394.37 C453.79 398.53, 450.8 402.62, 447.69 406.6 C444.58 410.59, 441.35 414.49, 438 418.28 C434.66 422.06, 431.2 425.76, 427.63 429.34 C424.07 432.92, 420.39 436.39, 416.61 439.75 C412.84 443.11, 408.96 446.35, 404.99 449.48 C401.02 452.6, 396.95 455.61, 392.8 458.48 C388.65 461.36, 384.41 464.11, 380.09 466.73 C375.78 469.35, 371.38 471.84, 366.91 474.19 C362.45 476.54, 357.91 478.77, 353.31 480.84 C348.71 482.92, 344.04 484.86, 339.33 486.66 C334.61 488.45, 329.84 490.11, 325.02 491.61 C320.21 493.12, 315.34 494.48, 310.45 495.69 C305.55 496.9, 300.61 497.97, 295.65 498.88 C290.69 499.79, 285.7 500.56, 280.69 501.17 C275.69 501.78, 270.66 502.24, 265.62 502.54 C260.59 502.85, 255.54 503, 250.5 503 C245.46 503, 240.41 502.85, 235.38 502.54 C230.34 502.24, 225.31 501.78, 220.31 501.17 C215.3 500.56, 210.31 499.79, 205.35 498.88 C200.39 497.97, 195.45 496.9, 190.55 495.69 C185.66 494.48, 180.79 493.12, 175.98 491.61 C171.16 490.11, 166.39 488.45, 161.67 486.66 C156.96 484.86, 152.29 482.92, 147.69 480.84 C143.09 478.77, 138.55 476.54, 134.09 474.19 C129.62 471.84, 125.22 469.35, 120.91 466.73 C116.59 464.11, 112.35 461.36, 108.2 458.48 C104.05 455.61, 99.98 452.6, 96.01 449.48 C92.04 446.35, 88.16 443.11, 84.39 439.75 C80.61 436.39, 76.93 432.92, 73.37 429.34 C69.8 425.76, 66.34 422.06, 63 418.28 C59.65 414.49, 56.42 410.59, 53.31 406.6 C50.2 402.62, 47.21 398.53, 44.34 394.37 C41.48 390.2, 38.74 385.94, 36.13 381.61 C33.52 377.28, 31.04 372.86, 28.69 368.38 C26.35 363.9, 24.14 359.33, 22.07 354.72 C20 350.1, 18.07 345.42, 16.28 340.68 C14.49 335.95, 12.84 331.15, 11.34 326.32 C9.84 321.49, 8.49 316.6, 7.28 311.69 C6.07 306.77, 5.01 301.81, 4.1 296.83 C3.19 291.86, 2.43 286.84, 1.83 281.81 C1.22 276.79, 0.76 271.74, 0.46 266.69 C0.15 261.63, 0 256.56, 0 251.5 C0 246.44, 0.15 241.37, 0.46 236.31 C0.76 231.26, 1.22 226.21, 1.83 221.19 C2.43 216.16, 3.19 211.14, 4.1 206.17 C5.01 201.19, 6.07 196.23, 7.28 191.31 C8.49 186.4, 9.84 181.51, 11.34 176.68 C12.84 171.85, 14.49 167.05, 16.28 162.32 C18.07 157.58, 20 152.9, 22.07 148.28 C24.14 143.67, 26.35 139.1, 28.69 134.62 C31.04 130.14, 33.52 125.72, 36.13 121.39 C38.74 117.06, 41.48 112.8, 44.34 108.63 C47.21 104.47, 50.2 100.38, 53.31 96.4 C56.42 92.41, 59.65 88.51, 63 84.72 C66.34 80.94, 69.8 77.24, 73.37 73.66 C76.93 70.08, 80.61 66.61, 84.39 63.25 C88.16 59.89, 92.04 56.65, 96.01 53.52 C99.98 50.4, 104.05 47.39, 108.2 44.52 C112.35 41.64, 116.59 38.89, 120.91 36.27 C125.22 33.65, 129.62 31.16, 134.09 28.81 C138.55 26.46, 143.09 24.23, 147.69 22.16 C152.29 20.08, 156.96 18.14, 161.67 16.34 C166.39 14.55, 171.16 12.89, 175.98 11.39 C180.79 9.88, 185.66 8.52, 190.55 7.31 C195.45 6.1, 200.39 5.03, 205.35 4.12 C210.31 3.21, 215.3 2.44, 220.31 1.83 C225.31 1.22, 230.34 0.76, 235.38 0.46 C240.41 0.15, 245.46 0, 250.5 0 C255.54 0, 260.59 0.15, 265.62 0.46 C270.66 0.76, 275.69 1.22, 280.69 1.83 C285.7 2.44, 290.69 3.21, 295.65 4.12 C300.61 5.03, 305.55 6.1, 310.45 7.31 C315.34 8.52, 320.21 9.88, 325.02 11.39 C329.84 12.89, 334.61 14.55, 339.33 16.34 C344.04 18.14, 348.71 20.08, 353.31 22.16 C357.91 24.23, 362.45 26.46, 366.91 28.81 C371.38 31.16, 375.78 33.65, 380.09 36.27 C384.41 38.89, 388.65 41.64, 392.8 44.52 C396.95 47.39, 401.02 50.4, 404.99 53.52 C408.96 56.65, 412.84 59.89, 416.61 63.25 C420.39 66.61, 424.07 70.08, 427.63 73.66 C431.2 77.24, 434.66 80.94, 438 84.72 C441.35 88.51, 444.58 92.41, 447.69 96.4 C450.8 100.38, 453.79 104.47, 456.66 108.63 C459.52 112.8, 462.26 117.06, 464.87 121.39 C467.48 125.72, 469.96 130.14, 472.31 134.62 C474.65 139.1, 476.86 143.67, 478.93 148.28 C481 152.9, 482.93 157.58, 484.72 162.32 C486.51 167.05, 488.16 171.85, 489.66 176.68 C491.16 181.51, 492.51 186.4, 493.72 191.31 C494.93 196.23, 495.99 201.19, 496.9 206.17 C497.81 211.14, 498.57 216.16, 499.17 221.19 C499.78 226.21, 500.24 231.26, 500.54 236.31 C500.85 241.37, 500.92 248.97, 501 251.5 C501.08 254.03, 501.08 248.97, 501 251.5" stroke="#10468b" stroke-width="4" fill="none"></path></g><g stroke-linecap="round" transform="translate(206.56886227544908 87) rotate(0 53.83233532934133 130)"><path d="M26.92 0 C46.71 0.99, 71.51 -2.62, 80.75 0 C101.35 5.35, 109.32 8.88, 107.66 26.92 C106.01 76.5, 102.2 127.16, 107.66 233.08 C110.57 247.51, 103.85 264.75, 80.75 260 C62.2 259.2, 38.04 260.25, 26.92 260 C7.85 265.06, -3 252.38, 0 233.08 C6.82 180.04, 3.16 130.46, 0 26.92 C-0.34 14.15, 11.78 1.77, 26.92 0" stroke="none" stroke-width="0" fill="#ffffff"></path><path d="M26.92 0 C44.8 -2.26, 64.84 1.88, 80.75 0 M26.92 0 C47.32 0.51, 63.63 0.75, 80.75 0 M80.75 0 C100.81 -2.48, 106.54 10.59, 107.66 26.92 M80.75 0 C102.87 4.32, 110.42 10.71, 107.66 26.92 M107.66 26.92 C114.03 83.25, 107.73 141.89, 107.66 233.08 M107.66 26.92 C104.52 104.53, 105.26 181.17, 107.66 233.08 M107.66 233.08 C103.98 251.35, 98.46 259.19, 80.75 260 M107.66 233.08 C108.7 250.78, 97.91 258.22, 80.75 260 M80.75 260 C60.71 257.22, 47.84 257.26, 26.92 260 M80.75 260 C65.2 257.57, 47.28 259.84, 26.92 260 M26.92 260 C7.96 259.62, -2.85 251.9, 0 233.08 M26.92 260 C5.37 257.07, -3.36 254.21, 0 233.08 M0 233.08 C-1.16 163.02, 3.99 97, 0 26.92 M0 233.08 C2.42 155.43, 4.34 80.01, 0 26.92 M0 26.92 C3.74 9.5, 5.98 0.74, 26.92 0 M0 26.92 C-3.26 5.04, 4.63 -3.76, 26.92 0" stroke="#ffffff" stroke-width="4" fill="none"></path></g><g stroke-linecap="round" transform="translate(151 139.6479750778816) rotate(0 36.90119760479041 68.03738317757006)"><path d="M18.45 0 C29.08 -1.08, 33.01 -1.83, 55.35 0 C65.36 -0.99, 73.99 0.88, 73.8 18.45 C80.4 55.77, 79 82.83, 73.8 117.62 C72.69 131.14, 67.15 132.88, 55.35 136.07 C40.92 138.36, 29.52 133.33, 18.45 136.07 C10.78 139.95, -2.38 129.69, 0 117.62 C2.98 91.18, 3.02 65.69, 0 18.45 C-1.32 3.39, 11.48 5.37, 18.45 0" stroke="none" stroke-width="0" fill="#ffffff"></path><path d="M18.45 0 C30.49 2.91, 44.85 -2.52, 55.35 0 M18.45 0 C29.91 1.27, 44.3 2.34, 55.35 0 M55.35 0 C70.05 1.51, 72.76 9.97, 73.8 18.45 M55.35 0 C66.03 3.7, 73.64 1.71, 73.8 18.45 M73.8 18.45 C76.38 50.46, 74.78 87.6, 73.8 117.62 M73.8 18.45 C71.86 39.6, 72.43 61.46, 73.8 117.62 M73.8 117.62 C73.12 128.38, 69.28 137.75, 55.35 136.07 M73.8 117.62 C70.6 127.97, 65.31 140.41, 55.35 136.07 M55.35 136.07 C43.81 137.95, 33.27 135.56, 18.45 136.07 M55.35 136.07 C42 136.44, 29.93 134.73, 18.45 136.07 M18.45 136.07 C3.23 138.84, 0.99 128.99, 0 117.62 M18.45 136.07 C5.95 133.47, -3.99 133.98, 0 117.62 M0 117.62 C-1.62 92.58, -4.58 73.1, 0 18.45 M0 117.62 C-3.35 91.69, -3.27 63.3, 0 18.45 M0 18.45 C-3.77 2.88, 9.89 1.48, 18.45 0 M0 18.45 C-1.73 5.01, 6.5 1.84, 18.45 0" stroke="#ffffff" stroke-width="4" fill="none"></path></g><g stroke-linecap="round" transform="translate(299.90718562874247 150.98753894080994) rotate(0 34.296407185628766 61.96261682242991)"><path d="M17.15 0 C31.05 -4.19, 35.9 1.39, 51.44 0 C58.37 -3.61, 67.75 0.51, 68.59 17.15 C70.36 43.04, 68.62 64.24, 68.59 106.78 C64.83 116.29, 58.56 128.81, 51.44 123.93 C45.95 118.64, 40.46 121.05, 17.15 123.93 C3.99 120.93, -5.12 119.2, 0 106.78 C-1.07 77.86, -7.5 48.39, 0 17.15 C-1.17 5.51, 1.28 -4.17, 17.15 0" stroke="none" stroke-width="0" fill="#ffffff"></path><path d="M17.15 0 C28.73 -2.57, 43.59 -1.39, 51.44 0 M17.15 0 C30.21 -1.83, 40.37 -0.17, 51.44 0 M51.44 0 C62.79 -0.7, 64.71 2, 68.59 17.15 M51.44 0 C62.44 -4.54, 66.51 9.93, 68.59 17.15 M68.59 17.15 C69.88 41.23, 71.24 67.92, 68.59 106.78 M68.59 17.15 C69.19 50.4, 67.41 82.31, 68.59 106.78 M68.59 106.78 C65.01 116.84, 58.97 125.88, 51.44 123.93 M68.59 106.78 C71.07 121.01, 58.46 120.43, 51.44 123.93 M51.44 123.93 C39.03 125.49, 24.72 125.14, 17.15 123.93 M51.44 123.93 C41.43 123.75, 29.16 122.84, 17.15 123.93 M17.15 123.93 C5.23 123.15, -3.24 114.35, 0 106.78 M17.15 123.93 C3.86 123.36, -2.28 118, 0 106.78 M0 106.78 C0.64 80.4, 3.51 60.32, 0 17.15 M0 106.78 C-0.23 79.48, 1.36 50.95, 0 17.15 M0 17.15 C0.49 9.15, 3.06 1.81, 17.15 0 M0 17.15 C-4.27 8.19, 2.51 -1.99, 17.15 0" stroke="#ffffff" stroke-width="4" fill="none"></path></g><g transform="translate(187 372) rotate(0 74.00390625 20.69999999999999)"><text x="0" y="33.120703125" font-family="Helvetica, Segoe UI Emoji" font-size="36px" fill="#ffffff" text-anchor="start" style="white-space: pre;" direction="ltr" dominant-baseline="alphabetic">CACTUS</text></g><g transform="translate(139.89453125 419.5) rotate(0 126.70703125 18.399999999999977)"><text x="126.70703125" y="14.720312499999999" font-family="Helvetica, Segoe UI Emoji" font-size="16px" fill="#f4f6f7" text-anchor="middle" style="white-space: pre;" direction="ltr" dominant-baseline="alphabetic">Constraint-free multi-modal Access </text><text x="126.70703125" y="33.1203125" font-family="Helvetica, Segoe UI Emoji" font-size="16px" fill="#f4f6f7" text-anchor="middle" style="white-space: pre;" direction="ltr" dominant-baseline="alphabetic">to Communication Technology</text></g></svg>